# xmcd
#
# Track frame offsets:
# 150
# 12377
# 29871
# 50910
# 78243
# 94795
# 108123
# 121817
# 146403
# 170647
# 185163
# 204471
# 226694
#
# Disc length: 3244 seconds
#
#
# Revision: 0
# Processed by: cddbd v1.5.2PL0 Copyright (c) Steve Scherf et al.
# Submitted via: FreeRIP 2.96 
#
DISCID=af0caa0d
DTITLE=JT Coldfire Band - Crazy Sun
DYEAR=2008
DGENRE=Blues
TTITLE0=Pistol Lead
TTITLE1=Johnny's Gone
TTITLE2=White Collar Street Life
TTITLE3=Crazy Sun
TTITLE4=I Won't Never Go
TTITLE5=Lower That Ladder
TTITLE6=No Time For Sleepin
TTITLE7=Hangin Tree
TTITLE8=She's Crazy
TTITLE9=Lee Malone
TTITLE10=Mr. Jones
TTITLE11=Bad Day
TTITLE12=Sweet Little Isa
EXTD=
EXTT0=
EXTT1=
EXTT2=
EXTT3=
EXTT4=
EXTT5=
EXTT6=
EXTT7=
EXTT8=
EXTT9=
EXTT10=
EXTT11=
EXTT12=
PLAYORDER=
